<svg version="1.2" xmlns="http://www.w3.org/2000/svg" viewBox="0 0 1357 1332" width="1357" height="1332">
	<title>64f6f41dcae1161d9e6a7b43_White-svg</title>
	<defs>
		<clipPath clipPathUnits="userSpaceOnUse" id="cp1">
			<path d="m0.78 0.89h5784.53v1330.22h-5784.53z"/>
		</clipPath>
	</defs>
	<style>
		.s0 { fill: #00ffa7 } 
	</style>
	<g id="Clip-Path" clip-path="url(#cp1)">
		<g id="Layer">
			<path id="Layer" fill-rule="evenodd" class="s0" d="m1276.8 704.7c62.4 41 88.2 81.6 77.6 121.8l-12.1 44.1c-8.9 30.4-45.3 52.9-109 67.6q-95.7 22.1-250.2 12.1c-44.3-2.9-90.2-8.1-137.6-15.3-21.3 46.6-42.5 88.5-63.8 125.7-53.5 95.5-108.2 167.5-163.9 216.2-55.7 48.7-109 64.5-159.9 47.5l-32.1-10.6c-57-18.8-94.5-62.7-112.3-131.9q-26.8-103.7-17.5-224.2c4.5-59.8-2.2-108.6-20-146.5-17.9-37.9-49.5-70.8-95-98.4-45.5-26.8-88.7-59.1-129.8-97.1-41-37.9-57-72.4-48.1-103.7l10.7-38.8c8.9-33.9 44.2-56.4 105.7-67.6 61.6-11.2 145.4-10.1 251.5 3.3 22.3 3.2 46.3 7 71.7 11.5 31.8-67.3 67.9-132.7 108.3-196.2 47.7-74.9 101.8-134.7 162.5-179.3 60.7-44.6 122.2-55.3 184.7-32.1l21.4 8c58.9 21.4 91.8 76.2 99 164.6 7.1 88.4 0.9 180.7-18.7 277.1-6.3 33-3.4 60.4 8.7 82.3q18 32.8 63.5 51.6c74 31.2 142.3 67.3 204.7 108.4zm-585.9-471.6c-42.9 68-81.1 139.5-114.8 214.3q113.9 25.1 228.4 58 53.5 14.8 87.7-4.7c22.8-12.9 37.2-37.2 43.5-72.9 12.5-75 15.1-149.3 8-222.9-7.1-73.6-33-116.7-77.6-129.2q-92.3 25.5-175.2 157.3zm-12.1 534.7c50 12.8 100 24.3 150 34.5 12.2-30.3 23.8-61.3 34.6-93.4 11.6-33 11.1-61.4-1.3-85q-18.8-35.5-69.6-50.2-120.3-36.1-240.1-62.2c-1.2-0.3-2.3-0.5-3.5-0.8-0.4 1-0.7 1.9-1.1 2.8-25.1 62.4-25.7 116.2-2.1 161.3 23.6 45.1 68 76 133.1 93zm-366.4-178.7c41.1-17.8 74.6-52.5 100.8-103.8-22.2-3.4-43-6.1-62.1-7.9q-179.2-16.1-262.2 21.4c18.7 23.2 41.9 44.1 69.6 62.9 54.4 39.2 105.7 48.4 153.8 27.4zm462.3 333.9c-40.7-7.8-82.4-17.2-125.2-28q-101.7-25.4-161.9-8c-40.1 11.6-63.3 37.9-69.5 78.9q-13.4 84.3-7.4 160.6c4 50.9 19 94.7 44.8 131.2 37.5 4.5 80.3-15.2 128.5-58.9 48.1-43.7 95.4-105.3 141.8-184.7 16.3-27.8 32.6-58.2 48.9-91.1zm500.9-100.3q-26.7-70.9-211.3-152.6c-32.2-14.2-60.3-15.8-84.3-4.7-24.1 11.2-42.4 34.1-54.9 68.9-9.3 27.5-19 54.4-29.2 80.9q58.5 10.6 116.8 18.9 166.6 23.4 262.9-11.4z"/>
		</g>
	</g>
</svg>